<?xml version="1.0" encoding="utf-8"?>
<!-- Generator: Adobe Illustrator 27.1.1, SVG Export Plug-In . SVG Version: 6.00 Build 0)  -->
<svg version="1.1" id="Layer_1" xmlns="http://www.w3.org/2000/svg" xmlns:xlink="http://www.w3.org/1999/xlink" x="0px" y="0px"
	 viewBox="0 0 310 310" style="enable-background:new 0 0 310 310;" xml:space="preserve">
<style type="text/css">
	.st0{display:none;fill:#FFC131;}
	.st1{display:none;fill:#24C8DB;}
	.st2{fill:#FA501D;}
</style>
<path class="st0" d="M195.3,120.6c0,12.2-9.9,22-22,22c-12.2,0-22-9.8-22-22s9.8-22,22-22C185.5,98.6,195.3,108.4,195.3,120.6z"/>
<ellipse class="st1" cx="136.3" cy="183.6" rx="22" ry="22"/>
<path d="M307.6,155.2c0,29,0.1,58.1-0.1,87.1c0,5-0.5,10-1.3,15.1c-2.2,14.5-8.7,26.6-20,36.1c-4.6,3.9-10.2,6-15.8,7.9
	c-5,1.7-10.1,2.8-15.3,3.3c-3.2,0.3-6.5,0.4-9.8,0.4c-61.1,0-122.2,0.1-183.3-0.1c-11.9,0-23.4-2.2-33.8-8.3
	c-5.9-3.5-10.6-8.2-14.6-13.7c-5.4-7.6-8.5-16.1-10.1-25.3c-1.2-6.9-1.4-13.8-1.4-20.8c0-5,0-10,0-14.9c0-51.8,0-103.6,0.1-155.4
	c0-12.6,2.7-24.6,9.1-35.5C19,18,30.2,9.9,45,6.9c7.8-1.6,15.8-1.4,23.8-1.6C82,4.9,95.3,5.1,108.5,5.1C151.6,5,194.7,5,237.7,5.1
	c4.2,0,8.3,0.1,12.5,0.3c8.6,0.4,17,1.7,24.9,5c16.1,6.7,25.6,19.1,29.8,35.7c1.2,4.6,1.7,9.4,2.1,14.2c1.3,17.5,0.4,35,0.6,52.5
	C307.8,127,307.7,141.1,307.6,155.2C307.6,155.2,307.6,155.2,307.6,155.2z M156.1,282.1C156.1,282.1,156.1,282.1,156.1,282.1
	c30.3,0,60.6,0,90.9,0c6,0,11.7-1.3,17-4c5.7-2.9,10.4-6.9,14.5-11.9c5.9-7.1,8.6-15.4,8.6-24.5c0.1-23.8,0-47.6,0-71.4
	c0-34.1,0-68.3,0-102.4c0-5-0.4-9.9-2.2-14.6c-0.9-2.4-1.4-5-3-7c-1.3-1.7-2.7-3.3-4-5c-3.5-4.5-8.1-7.5-12.9-10.2
	c-5.9-3.3-12.5-4.1-19.1-4.1c-22-0.1-44,0-66,0C142,27,104,27.1,66,27c-8.9,0-17.2,1.9-24.6,6.7C34.7,38.1,29.3,44,26.3,51.8
	c-1.8,4.7-3.1,9.4-3,14.5c0.2,5.2,0,10.3,0,15.5c0,53.2,0,106.4,0,159.6c0,6.9,1.4,13.4,4.9,19.4c7.5,13,18.4,21.1,33.7,21.2
	C93.3,282.3,124.7,282.1,156.1,282.1z"/>
<path class="st2" d="M156.1,282.1c-31.4,0-62.8,0.2-94.2-0.1c-15.4-0.1-26.3-8.2-33.7-21.2c-3.4-6-4.9-12.5-4.9-19.4
	c0.1-53.2,0-106.4,0-159.6c0-5.2,0.1-10.3,0-15.5c-0.2-5.1,1.1-9.8,3-14.5c3-7.7,8.4-13.6,15.2-18.1c7.4-4.9,15.7-6.7,24.6-6.7
	c38,0.1,75.9,0,113.9,0c22,0,44,0,66,0c6.6,0,13.2,0.8,19.1,4.1c4.8,2.7,9.4,5.7,12.9,10.2c1.3,1.7,2.7,3.3,4,5c1.6,2,2.1,4.6,3,7
	c1.8,4.7,2.2,9.6,2.2,14.6c0,34.1,0,68.3,0,102.4c0,23.8,0,47.6,0,71.4c0,9.1-2.7,17.3-8.6,24.5c-4.1,4.9-8.8,9-14.5,11.9
	c-5.3,2.7-11,4.1-17,4C216.7,282.1,186.4,282.1,156.1,282.1C156.1,282.1,156.1,282.1,156.1,282.1z M154.8,38.9
	C154.8,38.9,154.8,38.9,154.8,38.9c-30.5,0-61,0-91.5,0c-1.2,0-2.5-0.1-3.6,0.2c-15.2,3.2-26.2,15.8-26.2,32c0,23.4,0,46.9,0,70.3
	c0,26,0,52-0.1,78c0,6.3,0,12.6,0,18.8c0,4.9,1.7,9.7,3.8,14.2c1.7,3.6,4,6.8,7,9.5c5.2,4.7,11.1,8.5,18.3,8.5
	c61.5,0.1,122.9,0.1,184.4,0.1c1,0,2,0.2,2.9,0c4.6-1,8.9-2.6,12.8-5.3c6.3-4.4,10.6-10.2,12.9-17.6c1.2-4,1.6-8.1,1.7-12.2
	c0-53.3,0-106.6,0.1-160c0-4.2-0.3-8.3-1.2-12.3c-3.3-13.9-15-23.9-29.1-24C216.1,38.8,185.4,38.9,154.8,38.9z"/>
<path d="M154.8,38.9c30.7,0,61.3-0.1,92,0c14.1,0.1,25.8,10.1,29.1,24c0.9,4,1.2,8.2,1.2,12.3c0,53.3,0,106.6-0.1,160
	c0,4.1-0.4,8.2-1.7,12.2c-2.2,7.4-6.5,13.2-12.9,17.6c-3.9,2.7-8.2,4.3-12.8,5.3c-0.9,0.2-1.9,0-2.9,0c-61.5,0-122.9,0-184.4-0.1
	c-7.2,0-13.1-3.7-18.3-8.5c-2.9-2.7-5.3-5.9-7-9.5c-2.1-4.5-3.8-9.2-3.8-14.2c0-6.3,0-12.6,0-18.8c0.1-26,0.1-52,0.1-78
	c0-23.4,0.1-46.9,0-70.3c0-16.2,10.9-28.8,26.2-32c1.2-0.2,2.4-0.2,3.6-0.2C93.8,38.9,124.3,38.9,154.8,38.9
	C154.8,38.9,154.8,38.9,154.8,38.9z M123.1,228.3C123.1,228.3,123.1,228.3,123.1,228.3c15.9,0,31.8,0,47.7-0.1
	c9.4,0,16.7-4.4,21.9-12c3.5-5.2,4.8-11.2,4.8-17.5c0-20,0-40.1,0-60.1c0-1,0.1-2,0-2.9c-0.3-2.3-2-3.9-4.3-3.8c-1,0-2-0.3-3-0.4
	c-5-0.6-8.8-3.2-11.6-7.3c-2.5-3.6-3.2-8,0.1-11.9c3.3-4,6.2-8.3,9.3-12.5c0.5-0.7,0.7-1.5,0.5-2.4c-0.6-2.2-3-3.8-5.8-3.8
	c-4.2-0.1-8.4-0.2-12.6,0c-5,0.2-8.6-1.9-11.2-6.1c-2.2-3.6-4.4-7.1-8-9.7c-3.9-2.8-8.2-4.5-12.9-4.6c-10.1-0.2-20.3-0.1-30.4,0
	c-4.6,0.1-8.8,1.7-12.6,4.5c-4,2.9-6.4,7.1-9.1,11.1c-2,2.8-4.6,4.4-8.1,4.4c-3.7,0.1-7.5-0.3-11.2,0.5c-6.3,1.4-11.5,4.6-15.4,9.9
	c-1.9,2.5-3.5,5.3-4.3,8.2c-0.7,2.5-1.1,5.3-1.1,8.1c0.1,26.6,0,53.2,0,79.8c0,3.1,0.5,6.1,1.4,9.2C50.4,220,61,228.4,73,228.3
	C89.7,228.2,106.4,228.3,123.1,228.3z M212.6,174.8c0,16.2,0,32.4,0,48.6c0,2.1,2.1,4.5,4.1,4.6c8.8,0.5,17.6,0.4,26.4,0
	c3.3-0.2,5.2-2.3,5.2-5.6c0-6,0-11.9,0-17.9c0-26.1,0-52.2,0-78.3c0-3,1.5-4.6,4.6-4.6c4.5,0,9-0.1,13.5,0c3.8,0.2,6.2-4.2,4.6-7.1
	c-1.2-2.2-2.5-4.4-4-6.5c-3.9-5.3-7.6-10.6-11.4-16c-3-4.3-6.1-8.5-9.1-12.8c-1.7-2.4-3.2-5.1-5.4-7.3c-1.9-2-3.5-4.6-5-7.1
	c-1.1-1.8-3-2.8-4.9-3.4c-1.3-0.4-4.7,1.2-5.6,2.4c-1,1.4-1.9,2.9-3,4.3c-3.2,4-6.1,8.1-9.1,12.1c-8.2,11.1-16.3,22.4-24.3,33.7
	c-1.1,1.6-1.4,3-0.5,4.8c1,1.8,2.4,2.9,4.6,2.9c4.6,0,9.1,0,13.7,0c4.1,0,5.4,1.4,5.4,5.4C212.6,143,212.6,158.9,212.6,174.8z"/>
<path class="st2" d="M123.1,228.3c-16.7,0-33.4-0.1-50.1,0c-12,0.1-22.6-8.3-25.9-19.5c-0.9-3-1.4-6-1.4-9.2c0-26.6,0-53.2,0-79.8
	c0-2.8,0.4-5.5,1.1-8.1c0.8-2.9,2.4-5.7,4.3-8.2c3.9-5.2,9.1-8.4,15.4-9.9c3.7-0.8,7.5-0.5,11.2-0.5c3.5-0.1,6.1-1.6,8.1-4.4
	c2.7-4,5.1-8.2,9.1-11.1c3.8-2.7,8-4.4,12.6-4.5c10.1-0.1,20.3-0.2,30.4,0c4.7,0.1,9,1.8,12.9,4.6c3.6,2.6,5.8,6.1,8,9.7
	c2.6,4.2,6.1,6.3,11.2,6.1c4.2-0.2,8.4-0.1,12.6,0c2.9,0,5.2,1.6,5.8,3.8c0.3,0.9,0.1,1.7-0.5,2.4c-3.1,4.2-6,8.5-9.3,12.5
	c-3.3,4-2.6,8.4-0.1,11.9c2.8,4,6.6,6.6,11.6,7.3c1,0.1,2,0.4,3,0.4c2.3-0.1,4,1.4,4.3,3.8c0.1,1,0,1.9,0,2.9c0,20,0,40.1,0,60.1
	c0,6.3-1.3,12.3-4.8,17.5c-5.2,7.6-12.5,12-21.9,12C154.9,228.3,139,228.2,123.1,228.3C123.1,228.3,123.1,228.3,123.1,228.3z
	 M122.6,208.8c24.8,0.4,49.7-19.7,48.8-50.1c-0.7-23.9-20.5-46-47-46.5c-14.7-0.3-27.2,4.7-37.3,15.3c-9.5,10.1-13.6,22.4-12.8,36.2
	C75.9,186.9,95.4,208.7,122.6,208.8z"/>
<path class="st2" d="M212.6,174.8c0-15.9,0-31.8,0-47.7c0-4-1.4-5.4-5.4-5.4c-4.6,0-9.1,0-13.7,0c-2.2,0-3.6-1.1-4.6-2.9
	c-1-1.7-0.6-3.2,0.5-4.8c8-11.3,16-22.6,24.3-33.7c3-4.1,6-8.2,9.1-12.1c1.1-1.3,2-2.8,3-4.3c0.8-1.2,4.3-2.8,5.6-2.4
	c1.9,0.7,3.8,1.6,4.9,3.4c1.5,2.5,3,5.1,5,7.1c2.2,2.3,3.6,4.9,5.4,7.3c3,4.3,6.1,8.5,9.1,12.8c3.8,5.3,7.6,10.7,11.4,16
	c1.5,2.1,2.8,4.2,4,6.5c1.6,2.9-0.8,7.3-4.6,7.1c-4.5-0.2-9-0.1-13.5,0c-3.1,0-4.6,1.5-4.6,4.6c0,26.1,0,52.2,0,78.3
	c0,6,0,11.9,0,17.9c0,3.2-1.9,5.4-5.2,5.6c-8.8,0.4-17.6,0.5-26.4,0c-2.1-0.1-4.1-2.4-4.1-4.6C212.5,207.3,212.6,191.1,212.6,174.8z
	"/>
<path d="M122.6,208.8c-27.2,0-46.7-21.9-48.2-45.1c-0.9-13.9,3.2-26.2,12.8-36.2c10-10.6,22.6-15.6,37.3-15.3
	c26.5,0.6,46.3,22.6,47,46.5C172.3,189.1,147.4,209.2,122.6,208.8z M121,197.5c2.4,0,4.7,0,7.1-0.5c16.4-3.5,26.4-13.6,30.4-29.7
	c0.8-3.3,0.9-6.4-2-9.2c-2-1.9-3.5-4.3-5.2-6.4c-3.4-4-6.2-8.5-9.8-12.3c-1.7-1.8-3.2-1.9-5.4-0.7c-0.9,0.5-1.6,1.3-2.3,2.1
	c-2.3,2.8-4.5,5.6-6.8,8.3c-3.5,4.3-6.9,8.7-10.4,13c-1,1.2-1.9,1.8-3.6,0.6c-2.6-1.9-4.9-4-7.3-5.9c-2.9-2.2-4-2.3-6.3,0.5
	c-4.3,5.1-8.6,10.3-12.9,15.4c-1.1,1.3-1.2,2.6-0.1,3.9c4,4.6,7.7,9.5,12.6,13.2C105.5,194.8,112.8,197.5,121,197.5z"/>
<path class="st2" d="M121,197.5c-8.2,0-15.4-2.8-21.9-7.7c-4.9-3.7-8.6-8.6-12.6-13.2c-1.1-1.3-1-2.6,0.1-3.9
	c4.3-5.1,8.5-10.3,12.9-15.4c2.4-2.8,3.5-2.7,6.3-0.5c2.5,1.9,4.8,4.1,7.3,5.9c1.7,1.2,2.6,0.6,3.6-0.6c3.5-4.3,6.9-8.7,10.4-13
	c2.2-2.8,4.5-5.6,6.8-8.3c0.7-0.8,1.3-1.6,2.3-2.1c2.1-1.2,3.7-1,5.4,0.7c3.6,3.8,6.5,8.3,9.8,12.3c1.8,2.1,3.2,4.5,5.2,6.4
	c2.9,2.7,2.8,5.8,2,9.2c-4.1,16.1-14,26.2-30.4,29.7C125.7,197.5,123.4,197.5,121,197.5z"/>
</svg>
